HIERARCHY
ROOT hip
{
  OFFSET 0 0 0
  CHANNELS 6 Xposition Yposition Zposition Zrotation Yrotation Xrotation
  JOINT abdomen
  {
    OFFSET 0 20.6881 -0.73152
    CHANNELS 3 Zrotation Xrotation Yrotation
    JOINT chest
    {
      OFFSET 0 11.7043 -0.48768
      CHANNELS 3 Zrotation Xrotation Yrotation
      JOINT neck
      {
        OFFSET 0 22.1894 -2.19456
        CHANNELS 3 Zrotation Xrotation Yrotation
        JOINT head
        {
          OFFSET -0.24384 7.07133 1.2192
          CHANNELS 3 Zrotation Xrotation Yrotation
          JOINT leftEye
          {
            OFFSET 4.14528 8.04674 8.04672
            CHANNELS 3 Zrotation Xrotation Yrotation
            End Site
            {
              OFFSET 1 0 0
            }
          }
          JOINT rightEye
          {
            OFFSET -3.6576 8.04674 8.04672
            CHANNELS 3 Zrotation Xrotation Yrotation
            End Site
            {
              OFFSET 1 0 0
            }
          }
        }
      }
      JOINT rCollar
      {
        OFFSET -2.68224 19.2634 -4.8768
        CHANNELS 3 Zrotation Xrotation Yrotation
        JOINT rShldr
        {
          OFFSET -8.77824 -1.95073 1.46304
          CHANNELS 3 Zrotation Xrotation Yrotation
          JOINT rForeArm
          {
            OFFSET -28.1742 -1.7115 0.48768
            CHANNELS 3 Zrotation Xrotation Yrotation
            JOINT rHand
            {
              OFFSET -22.5879 0.773209 7.07136
              CHANNELS 3 Zrotation Xrotation Yrotation
              JOINT rThumb1
              {
                OFFSET -1.2192 -0.487915 3.41376
                CHANNELS 3 Zrotation Xrotation Yrotation
                JOINT rThumb2
                {
                  OFFSET -3.37035 -0.52449 3.41376
                  CHANNELS 3 Zrotation Xrotation Yrotation
                  End Site
                  {
                    OFFSET -1.78271 -1.18214 1.43049
                  }
                }
              }
              JOINT rIndex1
              {
                OFFSET -7.75947 0.938293 5.60832
                CHANNELS 3 Zrotation Xrotation Yrotation
                JOINT rIndex2
                {
                  OFFSET -2.54057 -0.884171 1.56538
                  CHANNELS 3 Zrotation Xrotation Yrotation
                  End Site
                  {
                    OFFSET -1.62519 -0.234802 1.16502
                  }
                }
              }
              JOINT rMid1
              {
                OFFSET -8.24714 1.18213 3.41376
                CHANNELS 3 Zrotation Xrotation Yrotation
                JOINT rMid2
                {
                  OFFSET -3.10165 -0.590103 1.0647
                  CHANNELS 3 Zrotation Xrotation Yrotation
                  End Site
                  {
                    OFFSET -2.48547 -0.328903 0.83742
                  }
                }
              }
              JOINT rRing1
              {
                OFFSET -8.82822 0.546677 1.51678
                CHANNELS 3 Zrotation Xrotation Yrotation
                JOINT rRing2
                {
                  OFFSET -2.60934 -0.819778 -0.0198488
                  CHANNELS 3 Zrotation Xrotation Yrotation
                  End Site
                  {
                    OFFSET -2.33842 -0.294052 0.168128
                  }
                }
              }
              JOINT rPinky1
              {
                OFFSET -8.27202 -0.0477905 -0.4584
                CHANNELS 3 Zrotation Xrotation Yrotation
                JOINT rPinky2
                {
                  OFFSET -1.82734 -0.647385 -0.700984
                  CHANNELS 3 Zrotation Xrotation Yrotation
                  End Site
                  {
                    OFFSET -1.69225 -0.51767 -0.607171
                  }
                }
              }
            }
          }
        }
      }
      JOINT lCollar
      {
        OFFSET 2.68224 19.2634 -4.8768
        CHANNELS 3 Zrotation Xrotation Yrotation
        JOINT lShldr
        {
          OFFSET 8.77824 -1.95073 1.46304
          CHANNELS 3 Zrotation Xrotation Yrotation
          JOINT lForeArm
          {
            OFFSET 28.1742 -1.7115 0.48768
            CHANNELS 3 Zrotation Xrotation Yrotation
            JOINT lHand
            {
              OFFSET 22.5879 0.773209 7.07136
              CHANNELS 3 Zrotation Xrotation Yrotation
              JOINT lThumb1
              {
                OFFSET 1.2192 -0.487915 3.41376
                CHANNELS 3 Zrotation Xrotation Yrotation
                JOINT lThumb2
                {
                  OFFSET 3.37035 -0.52449 3.41376
                  CHANNELS 3 Zrotation Xrotation Yrotation
                  End Site
                  {
                    OFFSET 1.78271 -1.18214 1.43049
                  }
                }
              }
              JOINT lIndex1
              {
                OFFSET 7.75947 0.938293 5.60832
                CHANNELS 3 Zrotation Xrotation Yrotation
                JOINT lIndex2
                {
                  OFFSET 2.54057 -0.884171 1.56538
                  CHANNELS 3 Zrotation Xrotation Yrotation
                  End Site
                  {
                    OFFSET 1.62519 -0.234802 1.16502
                  }
                }
              }
              JOINT lMid1
              {
                OFFSET 8.24714 1.18213 3.41376
                CHANNELS 3 Zrotation Xrotation Yrotation
                JOINT lMid2
                {
                  OFFSET 3.10165 -0.590103 1.0647
                  CHANNELS 3 Zrotation Xrotation Yrotation
                  End Site
                  {
                    OFFSET 2.48547 -0.328903 0.83742
                  }
                }
              }
              JOINT lRing1
              {
                OFFSET 8.82822 0.546677 1.51678
                CHANNELS 3 Zrotation Xrotation Yrotation
                JOINT lRing2
                {
                  OFFSET 2.60934 -0.819778 -0.0198488
                  CHANNELS 3 Zrotation Xrotation Yrotation
                  End Site
                  {
                    OFFSET 2.33842 -0.294052 0.168128
                  }
                }
              }
              JOINT lPinky1
              {
                OFFSET 8.27202 -0.0477905 -0.4584
                CHANNELS 3 Zrotation Xrotation Yrotation
                JOINT lPinky2
                {
                  OFFSET 1.82734 -0.647385 -0.700984
                  CHANNELS 3 Zrotation Xrotation Yrotation
                  End Site
                  {
                    OFFSET 1.69225 -0.51767 -0.607171
                  }
                }
              }
            }
          }
        }
      }
    }
  }
  JOINT rButtock
  {
    OFFSET -8.77824 4.35084 1.2192
    CHANNELS 3 Zrotation Xrotation Yrotation
    JOINT rThigh
    {
      OFFSET 0 -1.70687 -2.19456
      CHANNELS 3 Zrotation Xrotation Yrotation
      JOINT rShin
      {
        OFFSET 0 -36.8199 0.73152
        CHANNELS 3 Zrotation Xrotation Yrotation
        JOINT rFoot
        {
          OFFSET 0.73152 -45.1104 -5.12064
          CHANNELS 3 Zrotation Xrotation Yrotation
          End Site
          {
            OFFSET -1.1221 -3.69964 12.103
          }
        }
      }
    }
  }
  JOINT lButtock
  {
    OFFSET 8.77824 4.35084 1.2192
    CHANNELS 3 Zrotation Xrotation Yrotation
    JOINT lThigh
    {
      OFFSET 0 -1.70687 -2.19456
      CHANNELS 3 Zrotation Xrotation Yrotation
      JOINT lShin
      {
        OFFSET 0 -36.8199 0.73152
        CHANNELS 3 Zrotation Xrotation Yrotation
        JOINT lFoot
        {
          OFFSET -0.73152 -45.1104 -5.12064
          CHANNELS 3 Zrotation Xrotation Yrotation
          End Site
          {
            OFFSET 1.1221 -3.69964 12.103
          }
        }
      }
    }
  }
}
MOTION
Frames:	5
Frame Time:	0.00833333
0.0598575 96.9601 -60.8151 1.5139 4.5291 13.8733 -1.54887 12.2248 -2.56108 4.20599 -0.59854 -0.751599 -1.8366 2.84487 -0.829586 1.1213 -0.0291783 -1.1947 -0.0 0.0 0.0 -0.0 0.0 0.0 1.84781e-14 4.46038e-14 -7.26962e-15 80.472 32.2616 -28.3097 -28.3328 -37.8894 80.26 -0.37101 17.0635 2.47241 2.45616e-10 -9.21795e-11 -1.54355e-10 4.23148e-10 -1.50215e-10 -2.71284e-10 2.45618e-10 -9.21767e-11 -1.54366e-10 7.73091 5.47488 0.417314 2.45617e-10 -9.21788e-11 -1.54349e-10 2.90554 0.965183 0.102902 2.45619e-10 -9.21839e-11 -1.54347e-10 10.2786 0.731801 0.0259123 2.45616e-10 -9.218e-11 -1.54338e-10 2.22167 -0.733487 -0.20892 1.86614e-14 4.46016e-14 -7.58954e-15 -94.7056 44.0228 45.5308 28.0721 -39.9575 -83.8874 3.57557 -46.0956 8.39492 1.35032e-10 1.42578e-10 1.05336e-11 2.32856e-10 2.47154e-10 2.35678e-11 1.35021e-10 1.42574e-10 1.05534e-11 -7.73091 5.47488 -0.417314 1.35032e-10 1.42579e-10 1.0533e-11 -2.90554 0.965183 -0.102902 1.35024e-10 1.42579e-10 1.05333e-11 -10.2786 0.731801 -0.0259123 1.35035e-10 1.42579e-10 1.05303e-11 -2.22167 -0.733487 0.20892 -2.03217e-16 0.0 -3.88251e-19 -7.05315 -19.7671 -9.13844 -0.129382 20.9372 -0.0147083 3.38087 23.1956 -11.6716 2.03217e-16 0.0 3.88251e-19 7.04108 -27.9698 12.1427 0.163539 28.7065 -0.330076 3.12871 32.5182 -5.83649
0.00277727 98.8514 -60.0541 1.3348 4.8055 14.1397 -1.46162 11.0242 -2.83998 4.26341 0.0469253 -0.847531 -1.80174 3.20977 -0.827899 1.2874 0.563829 -1.21557 -0.0 0.0 0.0 -0.0 0.0 0.0 2.59962e-14 1.04959e-13 -6.80838e-15 80.9993 32.1321 -29.1191 -28.3643 -37.6022 79.723 -0.366518 16.9648 2.45722 -8.3744e-12 7.18726e-11 -1.24614e-11 -1.35492e-11 1.27931e-10 -2.39623e-11 -8.37241e-12 7.1877e-11 -1.24741e-11 7.73091 5.47488 0.417314 -8.37485e-12 7.1876e-11 -1.24551e-11 2.90554 0.965183 0.102902 -8.37057e-12 7.18678e-11 -1.24527e-11 10.2786 0.731801 0.0259123 -8.3738e-12 7.18714e-11 -1.24423e-11 2.22167 -0.733487 -0.20892 2.62362e-14 1.04959e-13 -7.10655e-15 -96.0744 43.7128 47.5753 28.0948 -39.8815 -83.7095 3.44927 -45.4828 8.2174 2.0677e-11 4.40318e-11 3.53042e-12 3.70638e-11 7.91481e-11 7.10933e-12 2.06641e-11 4.40264e-11 3.55268e-12 -7.73091 5.47488 -0.417314 2.06772e-11 4.40327e-11 3.53042e-12 -2.90554 0.965183 -0.102902 2.06682e-11 4.40328e-11 3.53042e-12 -10.2786 0.731801 -0.0259123 2.06798e-11 4.40336e-11 3.52724e-12 -2.22167 -0.733487 0.20892 -2.03217e-16 0.0 -3.88251e-19 -6.6694 -19.0897 -8.74143 -0.130918 19.2906 -0.0934683 5.08137 25.9049 -14.6702 2.03217e-16 0.0 3.88251e-19 7.13465 -27.73 11.4282 0.15374 27.425 -0.289648 3.05426 35.1282 -5.26308
-0.0643388 100.675 -59.3997 1.1385 5.0807 14.4543 -1.38757 9.9564 -3.1238 4.30643 0.594138 -0.943593 -1.76678 3.46282 -0.842876 1.45068 1.0897 -1.26644 -0.0 0.0 0.0 -0.0 0.0 0.0 3.79408e-14 1.79975e-13 -3.10391e-14 81.4454 31.8711 -29.5761 -28.3965 -37.1751 78.9752 -0.362828 16.8827 2.44459 -1.06452e-09 7.39008e-12 9.11283e-10 -1.82811e-09 -1.86133e-11 1.58542e-09 -1.06452e-09 7.39546e-12 9.11272e-10 7.73091 5.47488 0.417314 -1.06452e-09 7.39509e-12 9.11288e-10 2.90554 0.965183 0.102902 -1.06452e-09 7.38726e-12 9.1129e-10 10.2786 0.731801 0.0259123 -1.06452e-09 7.38962e-12 9.11302e-10 2.22167 -0.733487 -0.20892 3.81504e-14 1.79976e-13 -3.12989e-14 -97.3397 43.2742 49.2293 28.1373 -39.6174 -83.2412 3.38037 -45.1338 8.11895 -5.12687e-10 -5.20773e-10 -6.68998e-11 -8.77732e-10 -8.84261e-10 -1.36758e-10 -5.12698e-10 -5.20778e-10 -6.68772e-11 -7.73091 5.47488 -0.417314 -5.12686e-10 -5.20773e-10 -6.68983e-11 -2.90554 0.965183 -0.102902 -5.12695e-10 -5.20773e-10 -6.69002e-11 -10.2786 0.731801 -0.0259123 -5.12685e-10 -5.20772e-10 -6.69029e-11 -2.22167 -0.733487 0.20892 -2.03217e-16 0.0 -3.88251e-19 -6.41111 -19.0235 -8.92493 -0.137373 18.7615 -0.132337 6.09987 27.4072 -16.2288 2.03217e-16 0.0 3.88251e-19 7.30812 -28.0062 10.862 0.15183 27.0024 -0.274527 3.06741 36.4888 -5.10216
-0.125272 102.414 -58.8499 0.9504 5.3368 14.7673 -1.31313 9.00421 -3.41623 4.34029 1.05088 -1.04009 -1.7291 3.61909 -0.867937 1.60936 1.55528 -1.33607 -0.0 0.0 0.0 -0.0 0.0 0.0 5.31072e-14 2.69751e-13 -7.08543e-14 81.8188 31.5094 -29.7487 -28.4161 -36.6068 78.0483 -0.358527 16.7862 2.42977 -2.64883e-09 -1.83414e-10 2.3404e-09 -4.54994e-09 -4.02464e-10 4.07522e-09 -2.64883e-09 -1.83408e-10 2.34039e-09 7.73091 5.47488 0.417314 -2.64883e-09 -1.83408e-10 2.3404e-09 2.90554 0.965183 0.102902 -2.64883e-09 -1.83413e-10 2.3404e-09 10.2786 0.731801 0.0259123 -2.64883e-09 -1.83413e-10 2.34041e-09 2.22167 -0.733487 -0.20892 5.32336e-14 2.69752e-13 -7.10624e-14 -98.5292 42.7554 50.5845 28.1913 -39.1817 -82.5144 3.33175 -44.8796 8.04859 -1.30974e-09 -1.36293e-09 -1.65773e-10 -2.24531e-09 -2.32105e-09 -3.41088e-10 -1.30975e-09 -1.36293e-09 -1.65751e-10 -7.73091 5.47488 -0.417314 -1.30974e-09 -1.36293e-09 -1.6577e-10 -2.90554 0.965183 -0.102902 -1.30975e-09 -1.36293e-09 -1.65774e-10 -10.2786 0.731801 -0.0259123 -1.30974e-09 -1.36293e-09 -1.65776e-10 -2.22167 -0.733487 0.20892 -2.03217e-16 0.0 -3.88251e-19 -6.22801 -19.4829 -9.50504 -0.143856 19.1285 -0.145305 6.54758 28.0134 -16.9009 2.03217e-16 0.0 3.88251e-19 7.53089 -28.7374 10.3636 0.154799 27.2877 -0.277411 3.08785 36.8238 -5.1034
-0.170618 104.057 -58.3925 0.7864 5.5372 15.0205 -1.27495 8.29851 -3.66975 4.36354 1.40015 -1.12332 -1.68686 3.70206 -0.889354 1.73759 1.96196 -1.39741 -0.0 0.0 0.0 -0.0 0.0 0.0 6.60015e-14 3.35971e-13 -1.11024e-13 82.1107 31.0788 -29.6511 -28.4255 -35.9437 76.9613 -0.354649 16.6983 2.41628 -4.02242e-09 -4.10752e-10 3.60885e-09 -6.90961e-09 -8.43407e-10 6.28501e-09 -4.02242e-09 -4.10746e-10 3.60885e-09 7.73091 5.47488 0.417314 -4.02242e-09 -4.10745e-10 3.60885e-09 2.90554 0.965183 0.102902 -4.02242e-09 -4.10748e-10 3.60885e-09 10.2786 0.731801 0.0259123 -4.02242e-09 -4.10749e-10 3.60886e-09 2.22167 -0.733487 -0.20892 6.60354e-14 3.35971e-13 -1.11188e-13 -99.5522 42.2125 51.5655 28.2563 -38.6241 -81.5568 3.33227 -44.8825 8.04936 -1.99924e-09 -2.1017e-09 -2.58279e-10 -3.42821e-09 -3.58165e-09 -5.30031e-10 -1.99924e-09 -2.10169e-09 -2.58258e-10 -7.73091 5.47488 -0.417314 -1.99924e-09 -2.1017e-09 -2.58273e-10 -2.90554 0.965183 -0.102902 -1.99925e-09 -2.1017e-09 -2.5828e-10 -10.2786 0.731801 -0.0259123 -1.99924e-09 -2.1017e-09 -2.58281e-10 -2.22167 -0.733487 0.20892 -2.03217e-16 0.0 -3.88251e-19 -6.14107 -20.2339 -10.251 -0.150977 20.1283 -0.139803 6.6311 28.2734 -16.9472 2.03217e-16 0.0 3.88251e-19 7.75324 -29.6709 9.98617 0.161397 28.0435 -0.29227 3.12619 36.683 -5.20419
